# xmcd
#
# Track frame offsets:
#	150
#	16750
#	38437
#	62742
#
# Disc length: 1107 seconds
#
# Revision: 1
# Processed by: cddbd v1.5.1PL0 Copyright (c) Steve Scherf et al.
# Submitted via: audiograbber 1.81.02
#
DISCID=22045104
DTITLE=The Black Crowes - Kicking My Heart Around
DYEAR=1998
DGENRE=Rock
TTITLE0=Kicking My Heart Around
TTITLE1=It Must Be Over
TTITLE2=Remedy
TTITLE3=Twice As Hard
EXTD=from the forthcoming Sony Records release
EXTT0=
EXTT1=
EXTT2=
EXTT3=
PLAYORDER=
